<svg width="23" height="23" viewBox="0 0 23 23" fill="none" xmlns="http://www.w3.org/2000/svg">
<path d="M12.9408 20.3014C12.5287 20.6873 11.9779 20.903 11.4047 20.903C10.8314 20.903 10.2806 20.6873 9.8685 20.3014C6.09471 16.7467 1.03736 12.7756 3.50367 7.01034C4.83719 3.89311 8.03822 1.89844 11.4047 1.89844C14.7711 1.89844 17.9721 3.89311 19.3056 7.01034C21.7689 12.7683 16.7239 16.7589 12.9408 20.3014Z" stroke="#7A7A7A" stroke-width="1.42534"/>
<path d="M14.7297 10.4508C14.7297 12.2876 13.2407 13.7766 11.4039 13.7766C9.56713 13.7766 8.07812 12.2876 8.07812 10.4508C8.07812 8.61401 9.56713 7.125 11.4039 7.125C13.2407 7.125 14.7297 8.61401 14.7297 10.4508Z" stroke="#7A7A7A" stroke-width="1.42534"/>
</svg>
